<svg width="79" height="24" viewBox="0 0 79 24" fill="none" xmlns="http://www.w3.org/2000/svg">
<path d="M6.28687 24H2.57167L5.27352 17.842L0 4.80371H3.94876L7.13941 14.1294L10.6211 4.80371H14.5954L6.28687 24Z" fill="#151324"/>
<path d="M25.9772 19.1949V17.4809C24.678 18.7571 23.5868 19.1949 21.8459 19.1949C18.4958 19.1949 16.3657 17.2473 16.3657 12.1754V4.80371H19.8205V11.5054C19.8205 15.324 20.8849 16.0259 22.5479 16.0259C23.7169 16.0259 24.6512 15.532 25.1719 14.7012C25.5548 14.0515 25.7169 13.5066 25.7169 11.5845V4.80371H29.1717V19.1949H25.9772Z" fill="#151324"/>
<path d="M49.6644 19.1949V11.6356C49.6644 8.75247 48.5731 7.97267 46.9625 7.97267C45.0404 7.97267 44.0539 9.01282 44.0539 12.4396V19.1949H40.6029V11.6356C40.6029 8.80479 39.6151 7.97267 37.7951 7.97267C35.7952 7.97267 34.9873 9.03835 34.9873 12.4396V19.1949H31.5312V4.80371H34.7014V6.49221C35.7148 5.2721 36.7538 4.80371 38.4423 4.80371C40.4166 4.80371 41.6891 5.48013 42.6756 7.03845C43.8447 5.48013 45.2727 4.80371 47.2994 4.80371C51.0912 4.80371 53.1179 6.90827 53.1179 11.2208V19.1949H49.6644Z" fill="#151324"/>
<path d="M68.4399 13.4589H57.8469C58.2426 15.118 59.6745 16.1505 61.6259 16.1505C62.9839 16.1505 63.7956 15.7804 64.6392 14.7926H68.2204C67.3066 17.608 64.4656 19.1638 61.6999 19.1638C57.5266 19.1638 54.2912 16.0523 54.2912 12.0512C54.2841 11.1022 54.4658 10.1614 54.8256 9.28327C55.1855 8.40518 55.7163 7.60742 56.3874 6.93641C57.0584 6.26539 57.8561 5.73451 58.7342 5.37465C59.6123 5.0148 60.5532 4.83315 61.5021 4.84029C65.5772 4.84029 68.5662 7.95182 68.5662 12.1992C68.5741 12.6226 68.5317 13.0455 68.4399 13.4589ZM61.5481 7.85227C59.5967 7.85227 58.2643 8.81584 57.7448 10.5694H65.3271C64.9085 8.81584 63.5748 7.85227 61.5493 7.85227H61.5481Z" fill="#151324"/>
<path d="M75.2383 9.5354C76.8952 9.5354 78.2383 8.19225 78.2383 6.5354C78.2383 4.87854 76.8952 3.5354 75.2383 3.5354C73.5815 3.5354 72.2383 4.87854 72.2383 6.5354C72.2383 8.19225 73.5815 9.5354 75.2383 9.5354Z" fill="#A165FD"/>
</svg>
